<svg width="109" height="48" viewBox="0 0 109 48" fill="none" xmlns="http://www.w3.org/2000/svg">
<path d="M4.98 14.343C4.98 14.9257 5.01067 15.401 5.072 15.769C5.14867 16.1217 5.302 16.3977 5.532 16.597C5.762 16.781 6.084 16.9113 6.498 16.988C6.92733 17.0647 7.487 17.1107 8.177 17.126V18H0.035V17.126C0.571667 17.1107 1.001 17.0647 1.323 16.988C1.66033 16.9113 1.921 16.781 2.105 16.597C2.289 16.413 2.41167 16.1523 2.473 15.815C2.53433 15.4777 2.565 15.0407 2.565 14.504V3.786C2.565 3.24933 2.53433 2.82 2.473 2.498C2.427 2.16067 2.31967 1.9 2.151 1.716C1.99767 1.51667 1.76767 1.38633 1.461 1.325C1.15433 1.24833 0.755667 1.19467 0.265 1.164V0.289999H13.559L13.812 4.683H13.007C12.915 4.02367 12.7693 3.487 12.57 3.073C12.3707 2.64367 12.087 2.30633 11.719 2.061C11.3663 1.81567 10.914 1.647 10.362 1.555C9.81 1.44767 9.12 1.394 8.292 1.394H5.371C5.11033 1.394 4.98 1.52433 4.98 1.785V8.731C5.716 8.731 6.34467 8.69267 6.866 8.616C7.40267 8.524 7.83967 8.37067 8.177 8.156C8.52967 7.94133 8.798 7.65 8.982 7.282C9.166 6.914 9.281 6.43867 9.327 5.856H10.132V12.595H9.327C9.25033 12.0123 9.12767 11.5293 8.959 11.146C8.79033 10.7627 8.53733 10.4637 8.2 10.249C7.878 10.0343 7.45633 9.881 6.935 9.789C6.41367 9.697 5.762 9.651 4.98 9.651V14.343ZM30.3012 18H15.4432V17.126C15.9799 17.1107 16.4092 17.0647 16.7312 16.988C17.0685 16.9113 17.3292 16.781 17.5132 16.597C17.6972 16.413 17.8199 16.1523 17.8812 15.815C17.9425 15.4777 17.9732 15.0407 17.9732 14.504V3.786C17.9732 3.24933 17.9425 2.82 17.8812 2.498C17.8352 2.16067 17.7279 1.9 17.5592 1.716C17.4059 1.51667 17.1759 1.38633 16.8692 1.325C16.5625 1.24833 16.1639 1.19467 15.6732 1.164V0.289999H22.6652V1.164C22.1745 1.17933 21.7759 1.22533 21.4692 1.302C21.1779 1.37867 20.9479 1.51667 20.7792 1.716C20.6259 1.91533 20.5185 2.19133 20.4572 2.544C20.4112 2.89667 20.3882 3.36433 20.3882 3.947V13.86C20.3882 14.504 20.4495 15.033 20.5722 15.447C20.7102 15.8457 20.9325 16.16 21.2392 16.39C21.5612 16.6047 21.9829 16.758 22.5042 16.85C23.0255 16.9267 23.6849 16.965 24.4822 16.965C25.3562 16.965 26.0922 16.919 26.6902 16.827C27.2882 16.7197 27.7865 16.5433 28.1852 16.298C28.5992 16.0373 28.9212 15.6847 29.1512 15.24C29.3965 14.78 29.6035 14.1897 29.7722 13.469H30.6462L30.3012 18ZM47.2984 10.87C47.2984 12.0813 47.1757 13.147 46.9304 14.067C46.7004 14.987 46.3171 15.7537 45.7804 16.367C45.2591 16.9803 44.5767 17.448 43.7334 17.77C42.8901 18.0767 41.8704 18.23 40.6744 18.23C39.5397 18.23 38.5507 18.1227 37.7074 17.908C36.864 17.678 36.1587 17.31 35.5914 16.804C35.024 16.2827 34.6024 15.608 34.3264 14.78C34.0504 13.952 33.9124 12.9323 33.9124 11.721V5.649C33.9124 4.51433 33.8817 3.64033 33.8204 3.027C33.7744 2.41367 33.621 1.96133 33.3604 1.67C33.1764 1.47067 32.9234 1.34033 32.6014 1.279C32.2947 1.20233 31.8807 1.164 31.3594 1.164V0.289999H39.2024V1.164C38.681 1.164 38.2594 1.19467 37.9374 1.256C37.6154 1.31733 37.3624 1.47067 37.1784 1.716C36.9637 1.992 36.8257 2.43667 36.7644 3.05C36.703 3.648 36.6724 4.51433 36.6724 5.649V11.905C36.6724 12.687 36.749 13.3847 36.9024 13.998C37.071 14.596 37.3394 15.1097 37.7074 15.539C38.0754 15.953 38.5507 16.2673 39.1334 16.482C39.7314 16.6967 40.4597 16.804 41.3184 16.804C42.8517 16.804 44.0017 16.3823 44.7684 15.539C45.5351 14.6803 45.9184 13.423 45.9184 11.767V6.224C45.9184 4.85933 45.8647 3.82433 45.7574 3.119C45.65 2.41367 45.4507 1.91533 45.1594 1.624C44.9447 1.42467 44.6764 1.302 44.3544 1.256C44.0324 1.19467 43.6337 1.164 43.1584 1.164V0.289999H49.8284V1.164C49.3377 1.164 48.9314 1.20233 48.6094 1.279C48.3027 1.35567 48.0574 1.52433 47.8734 1.785C47.6434 2.107 47.4901 2.613 47.4134 3.303C47.3367 3.97767 47.2984 4.95133 47.2984 6.224V10.87ZM66.4879 15.493C67.2853 16.5817 68.2589 17.126 69.4089 17.126V18H61.5659V17.126C62.2559 17.126 62.7236 17.0647 62.9689 16.942C63.2296 16.804 63.3599 16.62 63.3599 16.39C63.3599 16.2827 63.3446 16.1753 63.3139 16.068C63.2986 15.9453 63.2449 15.7997 63.1529 15.631C63.0763 15.4623 62.9613 15.2553 62.8079 15.01C62.6546 14.7647 62.4476 14.4427 62.1869 14.044L59.5649 10.134L57.5869 12.618C57.1116 13.216 56.7129 13.7297 56.3909 14.159C56.0689 14.5883 55.8083 14.9563 55.6089 15.263C55.4249 15.5697 55.2869 15.8227 55.1949 16.022C55.1183 16.2213 55.0799 16.39 55.0799 16.528C55.0799 16.758 55.2103 16.919 55.4709 17.011C55.7316 17.0877 56.2223 17.126 56.9429 17.126V18H50.5489V17.126C50.9169 17.126 51.2466 17.0877 51.5379 17.011C51.8446 16.9343 52.1436 16.8117 52.4349 16.643C52.7263 16.459 53.0176 16.2213 53.3089 15.93C53.6156 15.6233 53.9453 15.2477 54.2979 14.803L58.8059 9.053L54.1369 2.682C53.7536 2.14533 53.3243 1.762 52.8489 1.532C52.3736 1.28667 51.8063 1.164 51.1469 1.164V0.289999H58.7829V1.164C57.7863 1.164 57.2879 1.463 57.2879 2.061C57.2879 2.44433 57.5026 2.95033 57.9319 3.579L60.4389 7.305L62.6929 4.453C63.1223 3.91633 63.4213 3.47933 63.5899 3.142C63.7586 2.80467 63.8429 2.48267 63.8429 2.176C63.8429 1.79267 63.7126 1.532 63.4519 1.394C63.2066 1.24067 62.7619 1.164 62.1179 1.164V0.289999H68.4429V1.164C68.0749 1.164 67.7529 1.19467 67.4769 1.256C67.2163 1.302 66.9633 1.40933 66.7179 1.578C66.4726 1.74667 66.2043 1.992 65.9129 2.314C65.6216 2.636 65.2689 3.06533 64.8549 3.602L61.1979 8.317L66.4879 15.493ZM4.98 43.343C4.98 43.9257 5.01067 44.401 5.072 44.769C5.14867 45.1217 5.302 45.3977 5.532 45.597C5.762 45.781 6.084 45.9113 6.498 45.988C6.92733 46.0647 7.487 46.1107 8.177 46.126V47H0.035V46.126C0.571667 46.1107 1.001 46.0647 1.323 45.988C1.66033 45.9113 1.921 45.781 2.105 45.597C2.289 45.413 2.41167 45.1523 2.473 44.815C2.53433 44.4777 2.565 44.0407 2.565 43.504V32.786C2.565 32.2493 2.53433 31.82 2.473 31.498C2.427 31.1607 2.31967 30.9 2.151 30.716C1.99767 30.5167 1.76767 30.3863 1.461 30.325C1.15433 30.2483 0.755667 30.1947 0.265 30.164V29.29H13.559L13.812 33.683H13.007C12.915 33.0237 12.7693 32.487 12.57 32.073C12.3707 31.6437 12.087 31.3063 11.719 31.061C11.3663 30.8157 10.914 30.647 10.362 30.555C9.81 30.4477 9.12 30.394 8.292 30.394H5.371C5.11033 30.394 4.98 30.5243 4.98 30.785V37.731C5.716 37.731 6.34467 37.6927 6.866 37.616C7.40267 37.524 7.83967 37.3707 8.177 37.156C8.52967 36.9413 8.798 36.65 8.982 36.282C9.166 35.914 9.281 35.4387 9.327 34.856H10.132V41.595H9.327C9.25033 41.0123 9.12767 40.5293 8.959 40.146C8.79033 39.7627 8.53733 39.4637 8.2 39.249C7.878 39.0343 7.45633 38.881 6.935 38.789C6.41367 38.697 5.762 38.651 4.98 38.651V43.343ZM20.3882 42.653C20.3882 43.4197 20.4189 44.0253 20.4802 44.47C20.5415 44.9147 20.6565 45.2597 20.8252 45.505C21.0092 45.7503 21.2622 45.9113 21.5842 45.988C21.9215 46.0647 22.3585 46.1107 22.8952 46.126V47H15.4432V46.126C15.9799 46.1107 16.4092 46.0647 16.7312 45.988C17.0685 45.896 17.3292 45.735 17.5132 45.505C17.6972 45.275 17.8199 44.953 17.8812 44.539C17.9425 44.1097 17.9732 43.5347 17.9732 42.814V33.476C17.9732 32.832 17.9425 32.303 17.8812 31.889C17.8352 31.4597 17.7279 31.1223 17.5592 30.877C17.4059 30.6317 17.1759 30.463 16.8692 30.371C16.5625 30.2637 16.1639 30.1947 15.6732 30.164V29.29H22.6652V30.164C22.1745 30.1793 21.7759 30.2407 21.4692 30.348C21.1779 30.4553 20.9479 30.6393 20.7792 30.9C20.6259 31.1453 20.5185 31.4903 20.4572 31.935C20.4112 32.3797 20.3882 32.947 20.3882 33.637V42.653ZM42.0321 33.683H41.0891C41.0431 33.0237 40.9358 32.4717 40.7671 32.027C40.5984 31.5823 40.3531 31.2373 40.0311 30.992C39.7244 30.7313 39.3334 30.5473 38.8581 30.44C38.3828 30.3327 37.8154 30.279 37.1561 30.279C36.5888 30.279 36.1288 30.2943 35.7761 30.325C35.4388 30.3403 35.1781 30.3787 34.9941 30.44C34.8101 30.5013 34.6874 30.578 34.6261 30.67C34.5801 30.7467 34.5571 30.854 34.5571 30.992V43.297C34.5571 43.7877 34.5878 44.2093 34.6491 44.562C34.7258 44.9147 34.8638 45.206 35.0631 45.436C35.2778 45.6507 35.5768 45.8193 35.9601 45.942C36.3588 46.0493 36.8801 46.1107 37.5241 46.126V47H28.8301V46.126C29.4741 46.1107 29.9954 46.0493 30.3941 45.942C30.7928 45.8193 31.0918 45.6507 31.2911 45.436C31.5058 45.206 31.6438 44.9147 31.7051 44.562C31.7818 44.2093 31.8201 43.7877 31.8201 43.297V30.992C31.8201 30.854 31.7894 30.7467 31.7281 30.67C31.6821 30.578 31.5748 30.5013 31.4061 30.44C31.2528 30.3787 31.0304 30.3403 30.7391 30.325C30.4478 30.2943 30.0568 30.279 29.5661 30.279C28.9681 30.279 28.4084 30.302 27.8871 30.348C27.3811 30.394 26.9364 30.532 26.5531 30.762C26.1851 30.9767 25.8861 31.314 25.6561 31.774C25.4261 32.234 25.3034 32.8703 25.2881 33.683H24.4371V29.29H41.8021L42.0321 33.683ZM58.379 47.23L47.454 32.832H47.362V42.653C47.362 43.4197 47.385 44.0253 47.431 44.47C47.4923 44.9147 47.5997 45.2597 47.753 45.505C47.9217 45.7503 48.1517 45.9113 48.443 45.988C48.7497 46.0647 49.1483 46.1107 49.639 46.126V47H43.452V46.126C43.9887 46.1107 44.418 46.0647 44.74 45.988C45.0773 45.896 45.338 45.735 45.522 45.505C45.706 45.275 45.8287 44.953 45.89 44.539C45.9513 44.1097 45.982 43.5347 45.982 42.814V33.476C45.982 32.832 45.9513 32.303 45.89 31.889C45.844 31.4597 45.7367 31.1223 45.568 30.877C45.4147 30.6317 45.1847 30.463 44.878 30.371C44.5713 30.2637 44.1727 30.1947 43.682 30.164V29.29H48.236L58.287 42.699H58.379V33.637C58.379 32.8857 58.3483 32.2877 58.287 31.843C58.241 31.383 58.1337 31.0303 57.965 30.785C57.8117 30.5397 57.5817 30.3787 57.275 30.302C56.9837 30.2253 56.5927 30.1793 56.102 30.164V29.29H62.289V30.164C61.7523 30.1793 61.3153 30.233 60.978 30.325C60.656 30.4017 60.403 30.555 60.219 30.785C60.035 31.015 59.9123 31.3447 59.851 31.774C59.7897 32.2033 59.759 32.7707 59.759 33.476V47.23H58.379ZM69.1509 37.271C69.9789 37.271 70.6689 37.225 71.2209 37.133C71.7882 37.0257 72.2329 36.8647 72.5549 36.65C72.8922 36.4353 73.1299 36.1593 73.2679 35.822C73.4212 35.4847 73.4979 35.086 73.4979 34.626H74.3029V40.905H73.4979C73.4979 40.445 73.4289 40.0463 73.2909 39.709C73.1682 39.3717 72.9382 39.0957 72.6009 38.881C72.2789 38.651 71.8342 38.4823 71.2669 38.375C70.7149 38.2523 70.0096 38.191 69.1509 38.191V43.389C69.1509 43.895 69.2122 44.3167 69.3349 44.654C69.4576 44.976 69.6646 45.2443 69.9559 45.459C70.2626 45.6583 70.6612 45.804 71.1519 45.896C71.6426 45.9727 72.2482 46.011 72.9689 46.011C73.7816 46.011 74.4716 45.9573 75.0389 45.85C75.6062 45.7273 76.0816 45.528 76.4649 45.252C76.8482 44.976 77.1549 44.6157 77.3849 44.171C77.6149 43.711 77.8066 43.1437 77.9599 42.469H78.8339L78.4889 47H64.2059V46.126C64.7426 46.1107 65.1719 46.0647 65.4939 45.988C65.8312 45.9113 66.0919 45.781 66.2759 45.597C66.4599 45.413 66.5826 45.1523 66.6439 44.815C66.7052 44.4777 66.7359 44.0407 66.7359 43.504V32.786C66.7359 32.2493 66.7052 31.82 66.6439 31.498C66.5979 31.1607 66.4906 30.9 66.3219 30.716C66.1686 30.5167 65.9386 30.3863 65.6319 30.325C65.3252 30.2483 64.9266 30.1947 64.4359 30.164V29.29H77.7299L77.9369 33.338H77.1319C77.0399 32.7247 76.8866 32.2263 76.6719 31.843C76.4726 31.4443 76.1889 31.13 75.8209 30.9C75.4682 30.67 75.0159 30.509 74.4639 30.417C73.9119 30.325 73.2449 30.279 72.4629 30.279H69.5419C69.2812 30.279 69.1509 30.4093 69.1509 30.67V37.271ZM81.1934 41.595H82.0444C82.1517 42.285 82.351 42.906 82.6424 43.458C82.949 44.01 83.3247 44.4777 83.7694 44.861C84.2294 45.2443 84.7507 45.5433 85.3334 45.758C85.9314 45.9573 86.5754 46.057 87.2654 46.057C88.4 46.057 89.297 45.7887 89.9564 45.252C90.6157 44.7153 90.9454 43.987 90.9454 43.067C90.9454 42.6837 90.8764 42.331 90.7384 42.009C90.6157 41.687 90.401 41.3803 90.0944 41.089C89.7877 40.7823 89.3737 40.4833 88.8524 40.192C88.3464 39.9007 87.7024 39.5863 86.9204 39.249C85.9697 38.835 85.1724 38.4363 84.5284 38.053C83.8844 37.6697 83.3707 37.271 82.9874 36.857C82.604 36.443 82.328 36.006 82.1594 35.546C82.006 35.0707 81.9294 34.534 81.9294 33.936C81.9294 33.2307 82.052 32.579 82.2974 31.981C82.558 31.383 82.9184 30.8693 83.3784 30.44C83.8384 29.9953 84.3827 29.658 85.0114 29.428C85.64 29.1827 86.33 29.06 87.0814 29.06C87.756 29.06 88.3847 29.1673 88.9674 29.382C89.55 29.5967 90.1404 29.9417 90.7384 30.417L91.3364 29.382H91.8654L92.1184 33.959H91.2674C90.8994 32.7017 90.3627 31.7663 89.6574 31.153C88.9674 30.5397 88.1317 30.233 87.1504 30.233C86.215 30.233 85.4714 30.463 84.9194 30.923C84.3674 31.383 84.0914 32.004 84.0914 32.786C84.0914 33.154 84.1527 33.4913 84.2754 33.798C84.398 34.0893 84.5974 34.373 84.8734 34.649C85.1494 34.9097 85.5097 35.178 85.9544 35.454C86.399 35.7147 86.951 35.9907 87.6104 36.282C88.745 36.788 89.688 37.2633 90.4394 37.708C91.1907 38.1373 91.7887 38.5743 92.2334 39.019C92.678 39.4483 92.9924 39.9083 93.1764 40.399C93.3604 40.8743 93.4524 41.411 93.4524 42.009C93.4524 42.7757 93.299 43.481 92.9924 44.125C92.6857 44.769 92.2564 45.321 91.7044 45.781C91.1524 46.241 90.493 46.6013 89.7264 46.862C88.9597 47.1073 88.1164 47.23 87.1964 47.23C86.3224 47.23 85.5327 47.1073 84.8274 46.862C84.1374 46.6167 83.432 46.2027 82.7114 45.62L82.0674 46.747H81.5384L81.1934 41.595ZM96.0176 41.595H96.8686C96.9759 42.285 97.1753 42.906 97.4666 43.458C97.7733 44.01 98.1489 44.4777 98.5936 44.861C99.0536 45.2443 99.5749 45.5433 100.158 45.758C100.756 45.9573 101.4 46.057 102.09 46.057C103.224 46.057 104.121 45.7887 104.781 45.252C105.44 44.7153 105.77 43.987 105.77 43.067C105.77 42.6837 105.701 42.331 105.563 42.009C105.44 41.687 105.225 41.3803 104.919 41.089C104.612 40.7823 104.198 40.4833 103.677 40.192C103.171 39.9007 102.527 39.5863 101.745 39.249C100.794 38.835 99.9966 38.4363 99.3526 38.053C98.7086 37.6697 98.1949 37.271 97.8116 36.857C97.4283 36.443 97.1523 36.006 96.9836 35.546C96.8303 35.0707 96.7536 34.534 96.7536 33.936C96.7536 33.2307 96.8763 32.579 97.1216 31.981C97.3823 31.383 97.7426 30.8693 98.2026 30.44C98.6626 29.9953 99.2069 29.658 99.8356 29.428C100.464 29.1827 101.154 29.06 101.906 29.06C102.58 29.06 103.209 29.1673 103.792 29.382C104.374 29.5967 104.965 29.9417 105.563 30.417L106.161 29.382H106.69L106.943 33.959H106.092C105.724 32.7017 105.187 31.7663 104.482 31.153C103.792 30.5397 102.956 30.233 101.975 30.233C101.039 30.233 100.296 30.463 99.7436 30.923C99.1916 31.383 98.9156 32.004 98.9156 32.786C98.9156 33.154 98.9769 33.4913 99.0996 33.798C99.2223 34.0893 99.4216 34.373 99.6976 34.649C99.9736 34.9097 100.334 35.178 100.779 35.454C101.223 35.7147 101.775 35.9907 102.435 36.282C103.569 36.788 104.512 37.2633 105.264 37.708C106.015 38.1373 106.613 38.5743 107.058 39.019C107.502 39.4483 107.817 39.9083 108.001 40.399C108.185 40.8743 108.277 41.411 108.277 42.009C108.277 42.7757 108.123 43.481 107.817 44.125C107.51 44.769 107.081 45.321 106.529 45.781C105.977 46.241 105.317 46.6013 104.551 46.862C103.784 47.1073 102.941 47.23 102.021 47.23C101.147 47.23 100.357 47.1073 99.6516 46.862C98.9616 46.6167 98.2563 46.2027 97.5356 45.62L96.8916 46.747H96.3626L96.0176 41.595Z" fill="#E5E5E5"/>
</svg>
